<?xml version="1.0" encoding="UTF-8"?>
<svg id="Layer_1" data-name="Layer 1" xmlns="http://www.w3.org/2000/svg" viewBox="0 0 1021.88 1021.88">
  <defs>
    <style>
      .cls-1 {
        fill: #2b2b2b;
      }

      .cls-1, .cls-2 {
        stroke-width: 0px;
      }

      .cls-2 {
        fill: #fff;
      }
    </style>
  </defs>
  <rect class="cls-1" x="44.33" y="44.18" width="933.22" height="933.22" rx="223.63" ry="223.63"/>
  <g>
    <path class="cls-2" d="M674.76,290.86c-18.44-36.28-45.05-64.99-79.8-86.15-34.76-21.46-72.4-32.19-112.9-32.19h-99.3c-59.56,0-110.64,21.16-153.26,63.48-42.33,42.62-63.48,93.7-63.48,153.26v201.32c0,59.55,21.16,110.64,63.48,153.26,42.62,42.32,93.7,63.48,153.26,63.48h65.26l23.42-67.56h-80.98c-41.11,0-76.33-14.51-105.65-43.53-29.33-29.31-43.98-64.53-43.98-105.65v-201.32c0-41.11,14.66-76.33,43.98-105.65,29.32-29.02,64.54-43.53,105.65-43.53h83.89c28.11,0,54.11,7.26,77.99,21.77,23.87,14.82,42.17,34.77,54.87,59.85l17.23,32.65,65.75-33.55-15.41-29.93Z"/>
    <polygon class="cls-2" points="855.87 468.14 429.91 468.14 406.48 535.73 595.42 535.73 442.12 978.21 513.61 978.21 666.94 535.73 832.44 535.73 855.87 468.14"/>
  </g>
</svg>